<?xml version="1.0" standalone="no"?>
<!DOCTYPE svg PUBLIC "-//W3C//DTD SVG 20010904//EN"
 "http://www.w3.org/TR/2001/REC-SVG-20010904/DTD/svg10.dtd">
<svg version="1.0" xmlns="http://www.w3.org/2000/svg"
 width="3200.000000pt" height="3200.000000pt" viewBox="0 0 3200.000000 3200.000000"
 preserveAspectRatio="xMidYMid meet">
<metadata>
Created by potrace 1.11, written by Peter Selinger 2001-2013
</metadata>
<g transform="translate(0.000000,3200.000000) scale(0.100000,-0.100000)"
fill="#000000" stroke="none">
<path d="M2920 29533 l0 -2156 25 -73 c26 -77 25 -104 -6 -104 -19 0 -19 -47
-19 -2127 0 -2021 7 -2735 30 -2788 4 -11 16 -150 25 -310 9 -159 20 -294 25
-300 4 -5 15 -109 25 -230 10 -121 22 -225 27 -232 5 -7 8 -27 7 -45 -2 -18 0
-38 3 -43 3 -6 11 -72 18 -147 7 -76 16 -138 20 -138 3 0 5 -14 2 -31 -2 -17
0 -40 6 -52 5 -12 18 -87 27 -167 10 -80 21 -149 25 -155 4 -5 15 -75 25 -155
10 -80 21 -149 25 -155 5 -5 14 -54 21 -107 7 -54 16 -98 20 -98 4 0 5 -9 2
-20 -3 -11 -1 -26 5 -33 6 -6 16 -56 23 -109 7 -54 16 -98 19 -98 4 0 5 -13 2
-30 -2 -16 0 -30 5 -30 5 0 17 -51 28 -112 10 -62 21 -117 25 -123 4 -5 16
-57 26 -115 9 -58 20 -107 24 -110 3 -3 14 -50 24 -105 11 -55 22 -102 25
-105 4 -3 15 -50 25 -105 10 -55 23 -105 28 -112 5 -7 7 -17 4 -22 -4 -5 -2
-12 2 -15 5 -3 15 -39 22 -81 7 -41 17 -75 21 -75 5 0 6 -7 3 -15 -4 -8 -2
-21 4 -28 5 -6 15 -42 22 -79 7 -38 17 -68 22 -68 5 0 6 -5 2 -11 -3 -6 -2
-21 4 -32 6 -12 18 -58 28 -102 9 -44 21 -84 25 -90 4 -5 15 -48 25 -95 10
-47 21 -87 24 -90 4 -3 15 -39 25 -80 10 -41 21 -77 24 -80 4 -3 15 -41 25
-85 10 -44 22 -85 27 -90 4 -6 15 -44 25 -85 9 -41 19 -77 23 -80 4 -3 15 -40
25 -82 11 -43 22 -78 26 -78 4 0 15 -34 25 -75 11 -41 22 -75 27 -75 4 0 5 -7
2 -15 -4 -8 -2 -21 4 -28 5 -6 15 -36 23 -64 7 -29 17 -53 21 -53 5 0 6 -5 3
-10 -4 -6 -2 -16 3 -23 5 -7 15 -36 23 -64 7 -29 17 -53 21 -53 5 0 7 -4 4 -9
-3 -5 1 -21 8 -37 8 -15 18 -44 21 -66 4 -21 11 -38 16 -38 6 0 7 -4 4 -10 -3
-5 1 -20 8 -32 8 -13 21 -47 28 -75 7 -29 16 -53 19 -53 3 0 14 -34 25 -75 10
-41 22 -75 26 -75 4 0 15 -30 25 -67 10 -38 23 -74 30 -80 7 -7 15 -31 19 -53
4 -22 12 -46 19 -53 7 -6 20 -42 30 -79 10 -38 21 -68 25 -68 4 0 13 -24 20
-52 7 -29 20 -63 27 -75 8 -13 12 -23 8 -23 -4 0 -2 -6 4 -12 5 -7 15 -32 21
-55 7 -24 16 -43 22 -43 6 0 7 -4 4 -10 -3 -5 1 -20 9 -32 8 -13 18 -40 21
-60 4 -21 11 -38 17 -38 5 0 6 -4 3 -10 -3 -5 -2 -10 2 -10 5 0 15 -21 22 -47
7 -27 19 -57 26 -68 7 -11 20 -46 29 -77 9 -32 20 -58 24 -58 4 0 14 -21 21
-47 7 -27 19 -57 26 -68 6 -11 20 -45 31 -75 10 -30 22 -57 25 -60 3 -3 14
-29 23 -57 10 -29 21 -53 25 -53 3 0 13 -21 20 -48 8 -26 21 -60 31 -77 9 -16
23 -49 30 -72 7 -24 16 -43 20 -43 4 0 7 -6 7 -12 -1 -12 32 -87 43 -98 3 -3
5 -9 6 -15 0 -12 29 -80 50 -120 9 -16 23 -50 31 -75 9 -25 19 -47 23 -50 4
-3 15 -29 24 -57 10 -29 21 -53 25 -53 4 0 13 -17 20 -37 12 -34 31 -77 121
-268 16 -33 34 -77 41 -97 7 -21 16 -38 20 -38 3 0 14 -21 24 -47 10 -27 21
-50 25 -53 12 -8 53 -104 51 -117 -1 -7 2 -13 7 -13 5 0 15 -18 22 -40 7 -22
17 -40 22 -40 5 0 6 -4 3 -10 -3 -5 -2 -10 2 -10 5 0 17 -22 27 -50 10 -27 21
-50 25 -50 4 0 15 -22 25 -50 10 -28 21 -50 25 -50 4 0 15 -22 25 -50 10 -28
21 -50 25 -50 4 0 15 -22 25 -50 10 -27 21 -50 25 -50 4 0 15 -22 26 -50 11
-27 22 -50 25 -50 3 0 14 -22 25 -50 11 -27 23 -50 27 -50 4 0 7 -3 6 -7 -2
-11 35 -87 45 -91 4 -2 5 -8 1 -13 -3 -5 -1 -9 4 -9 5 0 15 -18 22 -40 7 -22
17 -40 22 -40 5 0 7 -4 4 -9 -4 -5 -3 -11 1 -13 5 -1 17 -21 28 -43 11 -22 22
-42 25 -45 3 -3 14 -25 25 -50 11 -25 22 -47 25 -50 3 -3 14 -25 25 -50 11
-25 23 -47 26 -50 4 -3 29 -47 56 -98 77 -148 81 -156 90 -167 5 -5 15 -26 23
-45 8 -19 19 -38 24 -42 6 -4 11 -11 12 -15 1 -14 39 -88 47 -91 4 -2 5 -8 1
-13 -3 -5 -1 -9 5 -9 5 0 15 -16 22 -35 7 -19 17 -35 22 -35 4 0 5 -4 2 -10
-3 -5 -1 -10 4 -10 6 0 11 -4 11 -8 0 -9 124 -231 138 -248 5 -6 15 -27 23
-47 7 -20 17 -37 21 -37 5 0 18 -19 29 -42 24 -51 43 -85 87 -156 17 -29 32
-57 32 -62 0 -6 5 -10 12 -10 6 0 8 -3 5 -6 -3 -4 3 -18 13 -32 11 -13 20 -31
20 -38 0 -8 5 -14 11 -14 5 0 7 -4 4 -10 -3 -5 -2 -10 4 -10 6 0 19 -19 31
-43 33 -68 53 -101 65 -112 6 -5 20 -29 31 -52 10 -24 22 -43 27 -43 4 0 7 -5
7 -11 0 -6 13 -31 30 -56 17 -24 30 -48 30 -54 0 -5 8 -17 17 -27 10 -10 27
-36 38 -58 11 -21 23 -41 26 -44 3 -3 14 -20 23 -37 17 -35 59 -100 76 -120 6
-7 8 -13 5 -13 -4 0 3 -12 14 -26 12 -15 21 -33 21 -40 0 -8 4 -14 9 -14 5 0
19 -19 31 -42 12 -23 30 -53 41 -66 10 -14 19 -31 19 -38 0 -8 4 -14 9 -14 5
0 20 -21 33 -47 13 -27 29 -52 35 -56 7 -4 13 -14 13 -21 0 -7 8 -21 18 -32
10 -10 25 -34 32 -51 8 -18 18 -33 22 -33 4 0 17 -18 28 -40 11 -22 24 -40 28
-40 4 0 16 -20 27 -45 11 -25 23 -45 27 -45 5 0 12 -10 17 -22 5 -13 21 -40
35 -61 14 -21 26 -42 26 -47 0 -5 8 -14 18 -19 9 -6 13 -11 7 -11 -7 0 -7 -3
0 -8 16 -11 72 -97 80 -121 3 -11 11 -21 16 -21 5 0 12 -8 16 -17 3 -10 21
-39 40 -64 18 -26 33 -52 33 -58 0 -6 5 -11 10 -11 6 0 13 -8 17 -17 3 -10 21
-39 40 -64 18 -26 33 -51 33 -57 0 -6 8 -16 18 -21 9 -6 13 -11 9 -11 -4 0 10
-24 33 -53 22 -30 40 -59 40 -65 0 -6 8 -16 18 -21 9 -6 13 -11 9 -11 -4 0 11
-25 33 -55 22 -30 40 -59 40 -64 0 -6 8 -15 18 -20 9 -6 13 -11 9 -11 -5 0 12
-26 37 -58 25 -32 46 -64 46 -70 0 -7 5 -12 10 -12 6 0 14 -10 19 -22 5 -13
25 -43 45 -68 20 -25 36 -51 36 -57 0 -7 5 -13 10 -13 6 0 13 -8 17 -17 3 -10
25 -43 49 -74 24 -31 40 -59 37 -63 -3 -3 -1 -6 6 -6 6 0 16 -11 21 -25 5 -14
15 -25 21 -25 7 0 10 -3 6 -6 -5 -5 46 -79 88 -126 8 -10 12 -18 8 -18 -5 0
-3 -4 2 -8 16 -11 95 -120 95 -131 0 -5 7 -11 15 -15 8 -3 15 -12 15 -20 0 -8
8 -21 18 -28 9 -7 25 -44 35 -83 23 -86 32 -98 69 -91 15 3 28 2 28 -3 0 -4
16 -28 35 -52 19 -24 35 -49 35 -55 0 -7 7 -14 15 -18 8 -3 20 -17 25 -31 5
-14 15 -25 21 -25 7 0 9 -3 6 -6 -4 -4 11 -28 32 -53 21 -25 43 -56 49 -67 6
-12 20 -32 31 -45 46 -54 148 -186 165 -214 11 -16 46 -63 78 -102 33 -40 57
-73 54 -73 -3 0 2 -9 12 -19 9 -11 25 -30 34 -43 10 -13 36 -46 58 -74 22 -29
40 -55 40 -58 0 -3 8 -14 17 -24 10 -10 29 -33 43 -52 33 -44 125 -160 144
-182 9 -10 13 -18 10 -18 -4 0 7 -14 24 -30 18 -17 29 -30 26 -30 -3 0 17 -26
45 -59 28 -32 51 -61 51 -65 0 -3 8 -14 17 -25 10 -10 29 -33 43 -51 14 -18
49 -61 78 -96 28 -34 52 -66 52 -71 0 -4 9 -14 20 -21 11 -7 20 -19 20 -27 0
-8 11 -22 25 -31 14 -9 25 -21 25 -26 0 -10 92 -125 135 -168 14 -14 25 -29
25 -33 0 -5 11 -20 25 -35 42 -46 145 -171 145 -176 0 -4 49 -60 105 -117 14
-15 25 -30 25 -34 0 -4 38 -52 85 -106 47 -54 85 -100 85 -102 0 -6 22 -31
175 -203 69 -78 125 -145 125 -149 0 -4 18 -25 40 -46 22 -22 37 -39 33 -39
-5 0 9 -17 29 -38 54 -55 118 -128 118 -136 0 -3 18 -22 40 -42 22 -20 40 -41
40 -46 0 -5 24 -33 53 -63 28 -30 73 -78 99 -107 25 -29 74 -83 107 -119 34
-36 61 -69 61 -72 0 -3 22 -27 50 -53 27 -26 50 -50 50 -55 0 -4 21 -31 48
-58 26 -28 81 -87 123 -133 42 -46 115 -124 163 -174 47 -50 86 -93 86 -95 0
-3 43 -50 96 -105 53 -54 152 -157 220 -229 223 -234 1358 -1365 1370 -1365 4
0 74 -63 158 -140 202 -188 256 -237 313 -287 26 -23 91 -81 145 -128 53 -47
98 -85 101 -85 5 0 82 -69 128 -114 15 -14 30 -26 33 -26 8 0 137 -107 176
-145 14 -14 28 -25 32 -25 4 0 18 -9 30 -21 42 -38 210 -169 217 -169 4 0 16
-8 27 -18 42 -38 132 -102 142 -102 7 0 12 -5 12 -10 0 -6 8 -13 18 -17 9 -3
38 -21 63 -40 26 -18 52 -33 58 -33 6 0 11 -4 11 -9 0 -5 12 -16 28 -24 15 -8
68 -37 117 -63 89 -48 91 -49 180 -49 89 0 91 1 180 49 50 26 102 55 118 63
15 8 27 19 27 24 0 5 5 9 11 9 6 0 32 15 58 33 25 19 54 37 64 40 9 4 17 11
17 17 0 5 6 10 13 10 6 0 46 27 87 60 41 33 78 60 82 60 5 0 152 115 216 170
13 11 27 20 30 20 4 0 18 11 32 25 39 38 168 145 176 145 3 0 18 11 33 25 62
60 124 115 128 115 3 0 48 38 101 85 54 47 119 105 145 128 27 23 74 65 105
94 31 29 134 122 227 208 94 86 222 205 285 266 170 163 1064 1057 1217 1216
257 270 475 503 469 503 -2 0 35 42 84 92 167 173 180 188 180 196 0 5 25 33
55 61 30 29 55 55 55 58 0 3 25 34 57 67 31 34 79 87 107 119 28 32 72 80 99
108 26 27 47 54 47 58 0 5 20 27 45 50 25 23 45 44 45 48 0 7 68 86 118 135
20 21 34 38 29 38 -4 0 11 17 33 39 22 21 40 42 40 46 0 7 131 158 191 221 16
16 29 34 29 38 0 5 18 26 40 47 22 22 40 42 40 45 0 3 38 49 85 103 47 54 85
102 85 106 0 4 11 19 25 34 57 59 105 113 105 118 0 5 101 127 145 175 14 15
25 31 25 37 0 5 11 18 25 29 14 11 25 23 25 27 0 4 25 35 55 70 30 34 55 67
55 73 0 6 9 16 20 22 11 6 20 17 20 25 0 7 11 22 25 33 14 11 25 23 25 27 0 3
24 35 53 69 28 34 63 77 77 96 14 19 33 42 43 52 9 10 17 21 17 24 0 4 23 33
51 65 28 33 47 59 43 59 -5 0 2 7 14 16 12 8 22 20 22 27 0 6 9 20 20 32 11
11 45 52 76 90 30 39 61 78 69 87 8 9 22 29 31 45 10 15 40 55 66 88 26 33 56
71 65 84 10 13 26 32 35 42 10 11 16 19 12 19 -4 0 29 43 101 132 8 9 22 29
32 45 15 24 69 94 118 155 8 10 26 35 39 55 14 21 43 61 65 88 23 28 41 55 41
62 0 7 9 17 20 23 11 6 20 17 20 25 0 8 9 20 20 27 11 7 20 17 20 23 0 5 16
30 35 54 19 24 35 47 35 52 0 4 9 18 20 31 36 42 86 113 93 130 3 10 11 18 17
18 5 0 10 7 10 15 0 8 9 20 20 27 11 7 20 16 20 21 0 9 80 119 95 129 7 5 7 8
0 8 -5 0 -2 5 7 11 10 5 18 15 18 22 1 7 14 28 30 47 17 19 30 40 30 47 0 7 9
17 20 23 11 6 20 16 20 22 0 6 24 43 53 82 30 39 57 79 60 88 4 10 11 18 17
18 5 0 10 6 10 13 0 6 16 32 36 57 20 25 40 55 45 68 5 12 13 22 19 22 5 0 10
5 10 11 0 6 16 33 35 59 19 26 35 53 35 58 0 6 9 16 20 22 11 6 20 15 20 21 0
5 18 34 40 64 22 30 37 55 33 55 -4 0 0 5 10 11 9 5 17 15 17 21 0 6 15 31 33
57 19 25 37 54 40 64 4 9 11 17 17 17 5 0 10 5 10 11 0 6 15 32 33 58 19 25
37 54 40 64 4 9 11 17 17 17 5 0 10 5 10 10 0 9 55 97 79 126 6 7 7 15 4 18
-4 3 -1 6 6 6 6 0 15 8 19 18 10 24 65 105 77 114 7 5 7 8 0 8 -5 0 -2 5 8 11
9 5 17 15 17 20 0 6 14 30 30 54 16 24 30 48 30 54 0 5 6 14 13 18 7 4 21 26
32 47 11 22 27 47 35 57 8 9 29 40 45 68 17 29 40 64 52 79 13 15 23 32 23 38
0 6 13 28 30 50 16 21 30 45 30 52 0 6 5 12 10 12 6 0 10 5 10 10 0 6 18 37
40 69 22 32 40 63 40 68 0 6 16 31 35 57 20 25 33 46 30 46 -3 0 -1 6 5 13 17
20 59 85 76 120 9 17 20 34 24 37 3 3 17 26 29 52 13 27 27 48 31 48 5 0 12 9
15 21 4 11 20 40 36 64 16 24 29 48 29 54 0 6 3 11 8 11 4 0 17 22 30 50 13
28 27 50 31 50 4 0 16 17 25 38 31 67 57 112 67 112 6 0 7 5 4 10 -3 6 -1 10
4 10 6 0 11 6 11 14 0 7 9 25 21 40 11 14 17 26 12 26 -4 0 -3 4 2 8 6 4 19
25 30 47 11 22 23 42 26 45 7 5 43 69 77 135 8 17 18 32 21 35 4 3 15 23 26
45 11 22 26 46 33 53 6 7 12 18 12 24 0 5 9 22 20 38 11 15 17 30 13 34 -3 3
-2 6 3 6 6 0 27 34 49 75 21 41 42 75 47 75 5 0 6 5 3 10 -3 6 -2 10 3 10 5 0
15 18 22 40 8 23 18 44 25 48 6 4 19 27 30 52 11 25 22 47 25 50 3 3 14 23 25
45 11 22 25 45 30 51 6 6 17 30 25 53 7 22 17 41 21 41 4 0 27 38 50 85 22 47
44 85 48 85 3 0 15 21 25 48 11 26 22 49 26 52 3 3 14 25 25 50 11 25 22 47
25 50 3 3 14 24 25 47 11 24 24 43 28 43 5 0 5 5 2 10 -3 6 -2 10 3 10 5 0 15
18 22 40 7 22 17 40 22 40 5 0 6 5 3 10 -3 6 -2 10 2 10 5 0 17 22 28 50 11
27 22 50 25 50 3 0 14 22 25 50 11 27 22 50 26 50 4 0 15 23 25 50 10 28 21
50 25 50 4 0 15 23 25 50 10 27 21 50 25 50 4 0 15 23 25 50 10 27 21 50 25
50 4 0 15 23 25 50 10 27 22 50 27 50 4 0 5 4 2 10 -3 5 -2 10 3 10 5 0 15 18
22 40 7 22 17 40 22 40 5 0 6 4 3 10 -3 5 -2 10 2 10 5 0 15 17 22 38 14 41
122 264 132 272 3 3 12 23 19 45 7 22 23 58 35 80 13 22 26 53 30 70 3 16 10
32 14 35 9 6 64 122 82 172 7 21 16 38 20 38 4 0 15 25 24 55 10 30 21 55 25
55 4 0 11 12 15 27 6 26 48 123 81 186 8 16 12 33 8 38 -3 5 -1 9 4 9 5 0 17
25 27 55 9 30 20 55 24 55 4 0 14 19 21 43 7 23 21 56 30 72 10 17 23 51 31
78 7 26 17 47 20 47 4 0 15 24 25 53 9 28 20 54 24 57 3 3 14 31 24 62 10 32
22 60 26 63 4 3 16 31 26 63 10 31 21 59 24 62 4 3 15 30 25 60 10 30 22 60
26 66 5 6 6 14 2 17 -3 4 -2 7 4 7 5 0 16 22 23 50 7 28 17 50 22 50 5 0 8 6
7 13 -2 12 11 48 37 100 8 16 12 33 8 38 -3 5 -1 9 5 9 6 0 15 19 22 43 6 23
19 61 30 83 10 23 24 63 31 88 7 25 15 46 19 46 4 0 15 30 25 68 10 37 22 70
26 73 5 3 16 32 24 64 9 32 21 67 28 79 7 11 19 42 26 68 7 27 16 48 20 48 3
0 15 34 25 75 11 41 22 75 25 75 4 0 15 34 25 75 11 41 23 75 28 75 5 0 7 7 3
15 -3 8 -2 15 3 15 5 0 14 21 21 47 6 26 16 53 22 60 5 7 7 17 3 23 -3 5 -2
10 3 10 4 0 14 24 21 53 8 28 18 57 23 64 5 7 7 17 3 23 -3 5 -2 10 3 10 5 0
17 35 27 78 10 42 21 79 25 82 4 3 15 38 25 77 10 40 22 73 25 73 4 0 15 35
25 78 10 42 21 79 25 82 4 3 15 40 24 82 10 43 21 80 25 83 5 2 16 43 26 90
10 47 21 85 25 85 4 0 15 37 25 83 10 45 23 87 28 94 5 7 6 17 2 23 -3 5 -2
10 3 10 5 0 13 21 17 48 4 26 14 62 22 80 9 18 13 36 9 39 -3 3 -2 11 2 17 5
6 15 38 22 71 7 33 18 66 23 72 5 7 7 20 3 28 -3 8 -2 15 3 15 5 0 14 30 21
68 7 37 17 72 21 78 5 6 7 19 3 28 -3 9 -2 16 3 16 5 0 18 45 28 100 10 55 21
100 25 100 4 0 15 47 25 105 10 58 21 105 25 105 4 0 15 47 25 105 10 58 21
105 25 105 3 0 14 51 25 113 10 61 21 117 25 122 4 6 16 58 26 118 10 59 22
107 26 107 4 0 8 12 8 26 0 38 30 215 40 239 5 11 16 72 26 135 9 63 21 121
27 127 5 7 7 29 5 48 -2 19 -1 35 3 35 3 0 12 48 19 108 7 59 17 112 22 119 5
7 9 22 7 35 -1 13 1 30 4 38 9 22 37 249 37 293 -1 20 3 37 7 37 5 0 17 82 27
183 10 100 22 187 26 192 4 6 15 109 25 230 10 121 21 225 26 230 4 6 15 147
25 315 10 168 21 307 24 310 25 19 30 821 30 5018 l0 4372 -13055 0 -13055 0
0 -2157z"/>
</g>
</svg>
